<?xml version="1.0" encoding="UTF-8" standalone="no"?>
<!DOCTYPE svg PUBLIC "-//W3C//DTD SVG 1.1//EN"
 "http://www.w3.org/Graphics/SVG/1.1/DTD/svg11.dtd">
<!-- Generated by graphviz version 2.40.1 (20161225.0304)
 -->
<!-- Title: models_diagram Pages: 1 -->
<svg width="535pt" height="541pt"
 viewBox="0.00 0.00 535.39 540.68" xmlns="http://www.w3.org/2000/svg" xmlns:xlink="http://www.w3.org/1999/xlink">
<g id="graph0" class="graph" transform="scale(1 1) rotate(0) translate(36 504.6759)">
<title>models_diagram</title>
<polygon fill="#ffffff" stroke="transparent" points="-36,36 -36,-504.6759 499.3859,-504.6759 499.3859,36 -36,36"/>
<!-- User -->
<g id="node1" class="node">
<title>User</title>
<polygon fill="#add8e6" stroke="transparent" points="237.3859,-316.838 237.3859,-338.838 327.3859,-338.838 327.3859,-316.838 237.3859,-316.838"/>
<polygon fill="none" stroke="#000000" points="237.3859,-316.838 237.3859,-338.838 327.3859,-338.838 327.3859,-316.838 237.3859,-316.838"/>
<text text-anchor="start" x="272.9479" y="-325.838" font-family="Times,serif" font-weight="bold" font-size="10.00" fill="#000000">User</text>
<polygon fill="none" stroke="#000000" points="237.3859,-294.838 237.3859,-316.838 327.3859,-316.838 327.3859,-294.838 237.3859,-294.838"/>
<text text-anchor="start" x="242.3859" y="-303.838" font-family="Times,serif" text-decoration="underline" font-size="10.00" fill="#000000">id</text>
<text text-anchor="start" x="250.1649" y="-303.838" font-family="Times,serif" font-size="10.00" fill="#000000">: NUMBER</text>
<polygon fill="none" stroke="#000000" points="237.3859,-272.838 237.3859,-294.838 327.3859,-294.838 327.3859,-272.838 237.3859,-272.838"/>
<text text-anchor="start" x="242.3859" y="-280.838" font-family="Times,serif" font-size="10.00" fill="#000000">username: STRING</text>
<polygon fill="none" stroke="#000000" points="237.3859,-250.838 237.3859,-272.838 327.3859,-272.838 327.3859,-250.838 237.3859,-250.838"/>
<text text-anchor="start" x="242.3859" y="-258.838" font-family="Times,serif" font-size="10.00" fill="#000000">password: STRING</text>
<polygon fill="none" stroke="#000000" points="237.3859,-228.838 237.3859,-250.838 327.3859,-250.838 327.3859,-228.838 237.3859,-228.838"/>
<text text-anchor="start" x="242.2634" y="-236.838" font-family="Times,serif" font-size="10.00" fill="#000000">realName: STRING</text>
<polygon fill="none" stroke="#000000" points="237.3859,-206.838 237.3859,-228.838 327.3859,-228.838 327.3859,-206.838 237.3859,-206.838"/>
<text text-anchor="start" x="242.3859" y="-214.838" font-family="Times,serif" font-size="10.00" fill="#000000">description: TEXT</text>
<polygon fill="none" stroke="#000000" points="237.3859,-184.838 237.3859,-206.838 327.3859,-206.838 327.3859,-184.838 237.3859,-184.838"/>
<text text-anchor="start" x="242.3859" y="-192.838" font-family="Times,serif" font-size="10.00" fill="#000000">createdAt: DATE</text>
<polygon fill="none" stroke="#000000" points="237.3859,-162.838 237.3859,-184.838 327.3859,-184.838 327.3859,-162.838 237.3859,-162.838"/>
<text text-anchor="start" x="242.3859" y="-170.838" font-family="Times,serif" font-size="10.00" fill="#000000">updatedAt: DATE</text>
</g>
<!-- Post -->
<g id="node2" class="node">
<title>Post</title>
<polygon fill="#add8e6" stroke="transparent" points=".5,-220 .5,-242 115.5,-242 115.5,-220 .5,-220"/>
<polygon fill="none" stroke="#000000" points=".5,-220 .5,-242 115.5,-242 115.5,-220 .5,-220"/>
<text text-anchor="start" x="49.3865" y="-229" font-family="Times,serif" font-weight="bold" font-size="10.00" fill="#000000">Post</text>
<polygon fill="none" stroke="#000000" points=".5,-198 .5,-220 115.5,-220 115.5,-198 .5,-198"/>
<text text-anchor="start" x="5.5" y="-207" font-family="Times,serif" text-decoration="underline" font-size="10.00" fill="#000000">id</text>
<text text-anchor="start" x="13.279" y="-207" font-family="Times,serif" font-size="10.00" fill="#000000">: NUMBER</text>
<polygon fill="none" stroke="#000000" points=".5,-176 .5,-198 115.5,-198 115.5,-176 .5,-176"/>
<text text-anchor="start" x="5.5" y="-184" font-family="Times,serif" font-size="10.00" fill="#000000">title: STRING</text>
<polygon fill="none" stroke="#000000" points=".5,-154 .5,-176 115.5,-176 115.5,-154 .5,-154"/>
<text text-anchor="start" x="5.5" y="-162" font-family="Times,serif" font-size="10.00" fill="#000000">content: TEXT</text>
<polygon fill="none" stroke="#000000" points=".5,-132 .5,-154 115.5,-154 115.5,-132 .5,-132"/>
<text text-anchor="start" x="5.5" y="-140" font-family="Times,serif" font-size="10.00" fill="#000000">thumbnail: STRING</text>
<polygon fill="none" stroke="#000000" points=".5,-110 .5,-132 115.5,-132 115.5,-110 .5,-110"/>
<text text-anchor="start" x="5.5" y="-118" font-family="Times,serif" font-size="10.00" fill="#000000">views: NUMBER</text>
<polygon fill="none" stroke="#000000" points=".5,-88 .5,-110 115.5,-110 115.5,-88 .5,-88"/>
<text text-anchor="start" x="5.098" y="-96" font-family="Times,serif" font-size="10.00" fill="#000000">averageRating: NUMBER</text>
<polygon fill="none" stroke="#000000" points=".5,-66 .5,-88 115.5,-88 115.5,-66 .5,-66"/>
<text text-anchor="start" x="5.5" y="-74" font-family="Times,serif" font-size="10.00" fill="#000000">reviewCount: NUMBER</text>
<polygon fill="none" stroke="#000000" points=".5,-44 .5,-66 115.5,-66 115.5,-44 .5,-44"/>
<text text-anchor="start" x="5.5" y="-52" font-family="Times,serif" font-size="10.00" fill="#000000">createdAt: DATE</text>
<polygon fill="none" stroke="#000000" points=".5,-22 .5,-44 115.5,-44 115.5,-22 .5,-22"/>
<text text-anchor="start" x="5.5" y="-30" font-family="Times,serif" font-size="10.00" fill="#000000">updatedAt: DATE</text>
<polygon fill="none" stroke="#000000" points=".5,0 .5,-22 115.5,-22 115.5,0 .5,0"/>
<text text-anchor="start" x="5.5" y="-9" font-family="Times,serif" font-style="italic" text-decoration="underline" font-size="10.00" fill="#000000">UserId</text>
<text text-anchor="start" x="32.705" y="-9" font-family="Times,serif" font-size="10.00" fill="#000000">: NUMBER</text>
</g>
<!-- Post&#45;&gt;User -->
<g id="edge1" class="edge">
<title>Post&#45;&gt;User</title>
<path fill="none" stroke="#000000" stroke-width=".75" d="M120.5358,-157.3937C157.6907,-178.8451 203.8293,-205.4833 237.3268,-224.823"/>
<polygon fill="#000000" stroke="#000000" stroke-width=".75" points="120.3179,-157.2679 116.4717,-151.9296 117.7198,-155.7679 115.1217,-154.2679 115.1217,-154.2679 115.1217,-154.2679 117.7198,-155.7679 113.7717,-156.6062 120.3179,-157.2679 120.3179,-157.2679"/>
</g>
<!-- Review -->
<g id="node3" class="node">
<title>Review</title>
<polygon fill="#add8e6" stroke="transparent" points="15.5,-446.6759 15.5,-468.6759 100.5,-468.6759 100.5,-446.6759 15.5,-446.6759"/>
<polygon fill="none" stroke="#000000" points="15.5,-446.6759 15.5,-468.6759 100.5,-468.6759 100.5,-446.6759 15.5,-446.6759"/>
<text text-anchor="start" x="42.7275" y="-455.6759" font-family="Times,serif" font-weight="bold" font-size="10.00" fill="#000000">Review</text>
<polygon fill="none" stroke="#000000" points="15.5,-424.6759 15.5,-446.6759 100.5,-446.6759 100.5,-424.6759 15.5,-424.6759"/>
<text text-anchor="start" x="20.5" y="-433.6759" font-family="Times,serif" text-decoration="underline" font-size="10.00" fill="#000000">id</text>
<text text-anchor="start" x="28.279" y="-433.6759" font-family="Times,serif" font-size="10.00" fill="#000000">: NUMBER</text>
<polygon fill="none" stroke="#000000" points="15.5,-402.6759 15.5,-424.6759 100.5,-424.6759 100.5,-402.6759 15.5,-402.6759"/>
<text text-anchor="start" x="20.5" y="-410.6759" font-family="Times,serif" font-size="10.00" fill="#000000">comment: TEXT</text>
<polygon fill="none" stroke="#000000" points="15.5,-380.6759 15.5,-402.6759 100.5,-402.6759 100.5,-380.6759 15.5,-380.6759"/>
<text text-anchor="start" x="20.5" y="-388.6759" font-family="Times,serif" font-size="10.00" fill="#000000">rating: NUMBER</text>
<polygon fill="none" stroke="#000000" points="15.5,-358.6759 15.5,-380.6759 100.5,-380.6759 100.5,-358.6759 15.5,-358.6759"/>
<text text-anchor="start" x="20.5" y="-366.6759" font-family="Times,serif" font-size="10.00" fill="#000000">createdAt: DATE</text>
<polygon fill="none" stroke="#000000" points="15.5,-336.6759 15.5,-358.6759 100.5,-358.6759 100.5,-336.6759 15.5,-336.6759"/>
<text text-anchor="start" x="20.5" y="-344.6759" font-family="Times,serif" font-size="10.00" fill="#000000">updatedAt: DATE</text>
<polygon fill="none" stroke="#000000" points="15.5,-314.6759 15.5,-336.6759 100.5,-336.6759 100.5,-314.6759 15.5,-314.6759"/>
<text text-anchor="start" x="20.371" y="-323.6759" font-family="Times,serif" font-style="italic" text-decoration="underline" font-size="10.00" fill="#000000">UserId</text>
<text text-anchor="start" x="47.576" y="-323.6759" font-family="Times,serif" font-size="10.00" fill="#000000">: NUMBER</text>
<polygon fill="none" stroke="#000000" points="15.5,-292.6759 15.5,-314.6759 100.5,-314.6759 100.5,-292.6759 15.5,-292.6759"/>
<text text-anchor="start" x="20.5" y="-301.6759" font-family="Times,serif" font-style="italic" text-decoration="underline" font-size="10.00" fill="#000000">PostId</text>
<text text-anchor="start" x="46.056" y="-301.6759" font-family="Times,serif" font-size="10.00" fill="#000000">: NUMBER</text>
</g>
<!-- Review&#45;&gt;User -->
<g id="edge2" class="edge">
<title>Review&#45;&gt;User</title>
<path fill="none" stroke="#000000" stroke-width=".75" d="M105.6991,-352.8482C144.6827,-330.341 199.1705,-298.8824 237.2973,-276.8699"/>
<polygon fill="#000000" stroke="#000000" stroke-width=".75" points="105.2599,-353.1017 98.7137,-353.7635 102.6618,-354.6017 100.0637,-356.1017 100.0637,-356.1017 100.0637,-356.1017 102.6618,-354.6017 101.4137,-358.44 105.2599,-353.1017 105.2599,-353.1017"/>
</g>
<!-- Review&#45;&gt;Post -->
<g id="edge3" class="edge">
<title>Review&#45;&gt;Post</title>
<path fill="none" stroke="#000000" stroke-width=".75" d="M57.5,-286.2913C57.5,-271.9449 57.5,-256.9731 57.5,-242.1528"/>
<polygon fill="#000000" stroke="#000000" stroke-width=".75" points="57.5001,-286.3991 54.8,-292.3991 57.5,-289.3991 57.5,-292.3991 57.5,-292.3991 57.5,-292.3991 57.5,-289.3991 60.2,-292.3992 57.5001,-286.3991 57.5001,-286.3991"/>
</g>
<!-- UploadedImages -->
<g id="node4" class="node">
<title>UploadedImages</title>
<polygon fill="#add8e6" stroke="transparent" points="377.3859,-294.838 377.3859,-316.838 463.3859,-316.838 463.3859,-294.838 377.3859,-294.838"/>
<polygon fill="none" stroke="#000000" points="377.3859,-294.838 377.3859,-316.838 463.3859,-316.838 463.3859,-294.838 377.3859,-294.838"/>
<text text-anchor="start" x="386.5104" y="-303.838" font-family="Times,serif" font-weight="bold" font-size="10.00" fill="#000000">UploadedImages</text>
<polygon fill="none" stroke="#000000" points="377.3859,-272.838 377.3859,-294.838 463.3859,-294.838 463.3859,-272.838 377.3859,-272.838"/>
<text text-anchor="start" x="382.3859" y="-281.838" font-family="Times,serif" text-decoration="underline" font-size="10.00" fill="#000000">id</text>
<text text-anchor="start" x="390.1649" y="-281.838" font-family="Times,serif" font-size="10.00" fill="#000000">: NUMBER</text>
<polygon fill="none" stroke="#000000" points="377.3859,-250.838 377.3859,-272.838 463.3859,-272.838 463.3859,-250.838 377.3859,-250.838"/>
<text text-anchor="start" x="382.2029" y="-258.838" font-family="Times,serif" font-size="10.00" fill="#000000">filename: STRING</text>
<polygon fill="none" stroke="#000000" points="377.3859,-228.838 377.3859,-250.838 463.3859,-250.838 463.3859,-228.838 377.3859,-228.838"/>
<text text-anchor="start" x="382.3859" y="-236.838" font-family="Times,serif" font-size="10.00" fill="#000000">createdAt: DATE</text>
<polygon fill="none" stroke="#000000" points="377.3859,-206.838 377.3859,-228.838 463.3859,-228.838 463.3859,-206.838 377.3859,-206.838"/>
<text text-anchor="start" x="382.3859" y="-214.838" font-family="Times,serif" font-size="10.00" fill="#000000">updatedAt: DATE</text>
<polygon fill="none" stroke="#000000" points="377.3859,-184.838 377.3859,-206.838 463.3859,-206.838 463.3859,-184.838 377.3859,-184.838"/>
<text text-anchor="start" x="382.3859" y="-193.838" font-family="Times,serif" font-style="italic" text-decoration="underline" font-size="10.00" fill="#000000">UserId</text>
<text text-anchor="start" x="409.5909" y="-193.838" font-family="Times,serif" font-size="10.00" fill="#000000">: NUMBER</text>
</g>
<!-- UploadedImages&#45;&gt;User -->
<g id="edge4" class="edge">
<title>UploadedImages&#45;&gt;User</title>
<path fill="none" stroke="#000000" stroke-width=".75" d="M371.0816,-250.838C356.8444,-250.838 341.3863,-250.838 327.4231,-250.838"/>
<polygon fill="#000000" stroke="#000000" stroke-width=".75" points="371.1005,-250.8381 377.1005,-253.538 374.1005,-250.838 377.1005,-250.838 377.1005,-250.838 377.1005,-250.838 374.1005,-250.838 377.1005,-248.138 371.1005,-250.8381 371.1005,-250.8381"/>
</g>
</g>
</svg>
