<?xml version="1.0" encoding="UTF-8" standalone="no"?>
<!DOCTYPE svg PUBLIC "-//W3C//DTD SVG 1.1//EN"
 "http://www.w3.org/Graphics/SVG/1.1/DTD/svg11.dtd">
<!-- Generated by graphviz version 2.40.1 (20161225.0304)
 -->
<!-- Title: models_diagram Pages: 1 -->
<svg width="557pt" height="681pt"
 viewBox="0.00 0.00 557.30 680.80" xmlns="http://www.w3.org/2000/svg" xmlns:xlink="http://www.w3.org/1999/xlink">
<g id="graph0" class="graph" transform="scale(1 1) rotate(0) translate(36 644.7972)">
<title>models_diagram</title>
<polygon fill="#ffffff" stroke="transparent" points="-36,36 -36,-644.7972 521.2972,-644.7972 521.2972,36 -36,36"/>
<!-- User -->
<g id="node1" class="node">
<title>User</title>
<polygon fill="#add8e6" stroke="transparent" points="197.3986,-154 197.3986,-176 287.3986,-176 287.3986,-154 197.3986,-154"/>
<polygon fill="none" stroke="#000000" points="197.3986,-154 197.3986,-176 287.3986,-176 287.3986,-154 197.3986,-154"/>
<text text-anchor="start" x="232.9606" y="-163" font-family="Times,serif" font-weight="bold" font-size="10.00" fill="#000000">User</text>
<polygon fill="none" stroke="#000000" points="197.3986,-132 197.3986,-154 287.3986,-154 287.3986,-132 197.3986,-132"/>
<text text-anchor="start" x="202.3986" y="-141" font-family="Times,serif" text-decoration="underline" font-size="10.00" fill="#000000">id</text>
<text text-anchor="start" x="210.1776" y="-141" font-family="Times,serif" font-size="10.00" fill="#000000">: NUMBER</text>
<polygon fill="none" stroke="#000000" points="197.3986,-110 197.3986,-132 287.3986,-132 287.3986,-110 197.3986,-110"/>
<text text-anchor="start" x="202.3986" y="-118" font-family="Times,serif" font-size="10.00" fill="#000000">username: STRING</text>
<polygon fill="none" stroke="#000000" points="197.3986,-88 197.3986,-110 287.3986,-110 287.3986,-88 197.3986,-88"/>
<text text-anchor="start" x="202.3986" y="-96" font-family="Times,serif" font-size="10.00" fill="#000000">password: STRING</text>
<polygon fill="none" stroke="#000000" points="197.3986,-66 197.3986,-88 287.3986,-88 287.3986,-66 197.3986,-66"/>
<text text-anchor="start" x="202.2761" y="-74" font-family="Times,serif" font-size="10.00" fill="#000000">realName: STRING</text>
<polygon fill="none" stroke="#000000" points="197.3986,-44 197.3986,-66 287.3986,-66 287.3986,-44 197.3986,-44"/>
<text text-anchor="start" x="202.3986" y="-52" font-family="Times,serif" font-size="10.00" fill="#000000">description: TEXT</text>
<polygon fill="none" stroke="#000000" points="197.3986,-22 197.3986,-44 287.3986,-44 287.3986,-22 197.3986,-22"/>
<text text-anchor="start" x="202.3986" y="-30" font-family="Times,serif" font-size="10.00" fill="#000000">createdAt: DATE</text>
<polygon fill="none" stroke="#000000" points="197.3986,0 197.3986,-22 287.3986,-22 287.3986,0 197.3986,0"/>
<text text-anchor="start" x="202.3986" y="-8" font-family="Times,serif" font-size="10.00" fill="#000000">updatedAt: DATE</text>
</g>
<!-- Post -->
<g id="node2" class="node">
<title>Post</title>
<polygon fill="#add8e6" stroke="transparent" points="185.3986,-586.7972 185.3986,-608.7972 300.3986,-608.7972 300.3986,-586.7972 185.3986,-586.7972"/>
<polygon fill="none" stroke="#000000" points="185.3986,-586.7972 185.3986,-608.7972 300.3986,-608.7972 300.3986,-586.7972 185.3986,-586.7972"/>
<text text-anchor="start" x="234.2851" y="-595.7972" font-family="Times,serif" font-weight="bold" font-size="10.00" fill="#000000">Post</text>
<polygon fill="none" stroke="#000000" points="185.3986,-564.7972 185.3986,-586.7972 300.3986,-586.7972 300.3986,-564.7972 185.3986,-564.7972"/>
<text text-anchor="start" x="190.3986" y="-573.7972" font-family="Times,serif" text-decoration="underline" font-size="10.00" fill="#000000">id</text>
<text text-anchor="start" x="198.1776" y="-573.7972" font-family="Times,serif" font-size="10.00" fill="#000000">: NUMBER</text>
<polygon fill="none" stroke="#000000" points="185.3986,-542.7972 185.3986,-564.7972 300.3986,-564.7972 300.3986,-542.7972 185.3986,-542.7972"/>
<text text-anchor="start" x="190.3986" y="-550.7972" font-family="Times,serif" font-size="10.00" fill="#000000">title: STRING</text>
<polygon fill="none" stroke="#000000" points="185.3986,-520.7972 185.3986,-542.7972 300.3986,-542.7972 300.3986,-520.7972 185.3986,-520.7972"/>
<text text-anchor="start" x="190.3986" y="-528.7972" font-family="Times,serif" font-size="10.00" fill="#000000">content: TEXT</text>
<polygon fill="none" stroke="#000000" points="185.3986,-498.7972 185.3986,-520.7972 300.3986,-520.7972 300.3986,-498.7972 185.3986,-498.7972"/>
<text text-anchor="start" x="190.3986" y="-506.7972" font-family="Times,serif" font-size="10.00" fill="#000000">views: NUMBER</text>
<polygon fill="none" stroke="#000000" points="185.3986,-476.7972 185.3986,-498.7972 300.3986,-498.7972 300.3986,-476.7972 185.3986,-476.7972"/>
<text text-anchor="start" x="189.9966" y="-484.7972" font-family="Times,serif" font-size="10.00" fill="#000000">averageRating: NUMBER</text>
<polygon fill="none" stroke="#000000" points="185.3986,-454.7972 185.3986,-476.7972 300.3986,-476.7972 300.3986,-454.7972 185.3986,-454.7972"/>
<text text-anchor="start" x="190.3986" y="-462.7972" font-family="Times,serif" font-size="10.00" fill="#000000">reviewCount: NUMBER</text>
<polygon fill="none" stroke="#000000" points="185.3986,-432.7972 185.3986,-454.7972 300.3986,-454.7972 300.3986,-432.7972 185.3986,-432.7972"/>
<text text-anchor="start" x="190.3986" y="-440.7972" font-family="Times,serif" font-size="10.00" fill="#000000">createdAt: DATE</text>
<polygon fill="none" stroke="#000000" points="185.3986,-410.7972 185.3986,-432.7972 300.3986,-432.7972 300.3986,-410.7972 185.3986,-410.7972"/>
<text text-anchor="start" x="190.3986" y="-418.7972" font-family="Times,serif" font-size="10.00" fill="#000000">updatedAt: DATE</text>
<polygon fill="none" stroke="#000000" points="185.3986,-388.7972 185.3986,-410.7972 300.3986,-410.7972 300.3986,-388.7972 185.3986,-388.7972"/>
<text text-anchor="start" x="190.3986" y="-397.7972" font-family="Times,serif" font-style="italic" text-decoration="underline" font-size="10.00" fill="#000000">UserId</text>
<text text-anchor="start" x="217.6036" y="-397.7972" font-family="Times,serif" font-size="10.00" fill="#000000">: NUMBER</text>
<polygon fill="none" stroke="#000000" points="185.3986,-366.7972 185.3986,-388.7972 300.3986,-388.7972 300.3986,-366.7972 185.3986,-366.7972"/>
<text text-anchor="start" x="190.3986" y="-375.7972" font-family="Times,serif" font-style="italic" text-decoration="underline" font-size="10.00" fill="#000000">ImageId</text>
<text text-anchor="start" x="223.7136" y="-375.7972" font-family="Times,serif" font-size="10.00" fill="#000000">: NUMBER</text>
</g>
<!-- Post&#45;&gt;User -->
<g id="edge1" class="edge">
<title>Post&#45;&gt;User</title>
<path fill="none" stroke="#000000" stroke-width=".75" d="M242.3986,-360.6096C242.3986,-300.5565 242.3986,-230.367 242.3986,-176.2495"/>
<polygon fill="#000000" stroke="#000000" stroke-width=".75" points="242.3987,-360.7599 239.6986,-366.7599 242.3987,-363.7599 242.3986,-366.7599 242.3986,-366.7599 242.3986,-366.7599 242.3987,-363.7599 245.0986,-366.76 242.3987,-360.7599 242.3987,-360.7599"/>
</g>
<!-- Image -->
<g id="node4" class="node">
<title>Image</title>
<polygon fill="#add8e6" stroke="transparent" points="399.2972,-331.8986 399.2972,-353.8986 485.2972,-353.8986 485.2972,-331.8986 399.2972,-331.8986"/>
<polygon fill="none" stroke="#000000" points="399.2972,-331.8986 399.2972,-353.8986 485.2972,-353.8986 485.2972,-331.8986 399.2972,-331.8986"/>
<text text-anchor="start" x="429.8042" y="-340.8986" font-family="Times,serif" font-weight="bold" font-size="10.00" fill="#000000">Image</text>
<polygon fill="none" stroke="#000000" points="399.2972,-309.8986 399.2972,-331.8986 485.2972,-331.8986 485.2972,-309.8986 399.2972,-309.8986"/>
<text text-anchor="start" x="404.2972" y="-318.8986" font-family="Times,serif" text-decoration="underline" font-size="10.00" fill="#000000">id</text>
<text text-anchor="start" x="412.0762" y="-318.8986" font-family="Times,serif" font-size="10.00" fill="#000000">: NUMBER</text>
<polygon fill="none" stroke="#000000" points="399.2972,-287.8986 399.2972,-309.8986 485.2972,-309.8986 485.2972,-287.8986 399.2972,-287.8986"/>
<text text-anchor="start" x="404.1142" y="-295.8986" font-family="Times,serif" font-size="10.00" fill="#000000">filename: STRING</text>
<polygon fill="none" stroke="#000000" points="399.2972,-265.8986 399.2972,-287.8986 485.2972,-287.8986 485.2972,-265.8986 399.2972,-265.8986"/>
<text text-anchor="start" x="404.2972" y="-273.8986" font-family="Times,serif" font-size="10.00" fill="#000000">createdAt: DATE</text>
<polygon fill="none" stroke="#000000" points="399.2972,-243.8986 399.2972,-265.8986 485.2972,-265.8986 485.2972,-243.8986 399.2972,-243.8986"/>
<text text-anchor="start" x="404.2972" y="-251.8986" font-family="Times,serif" font-size="10.00" fill="#000000">updatedAt: DATE</text>
<polygon fill="none" stroke="#000000" points="399.2972,-221.8986 399.2972,-243.8986 485.2972,-243.8986 485.2972,-221.8986 399.2972,-221.8986"/>
<text text-anchor="start" x="404.2972" y="-230.8986" font-family="Times,serif" font-style="italic" text-decoration="underline" font-size="10.00" fill="#000000">UserId</text>
<text text-anchor="start" x="431.5022" y="-230.8986" font-family="Times,serif" font-size="10.00" fill="#000000">: NUMBER</text>
</g>
<!-- Post&#45;&gt;Image -->
<g id="edge2" class="edge">
<title>Post&#45;&gt;Image</title>
<path fill="none" stroke="#000000" stroke-width=".75" d="M304.4376,-425.7582C335.1452,-395.0507 371.4574,-358.7384 399.1039,-331.0919"/>
<polygon fill="#000000" stroke="#000000" stroke-width=".75" points="304.192,-426.0038 298.0402,-428.3372 302.0707,-428.1251 299.9494,-430.2464 299.9494,-430.2464 299.9494,-430.2464 302.0707,-428.1251 301.8586,-432.1556 304.192,-426.0038 304.192,-426.0038"/>
</g>
<!-- Review -->
<g id="node3" class="node">
<title>Review</title>
<polygon fill="#add8e6" stroke="transparent" points=".5,-353.8986 .5,-375.8986 85.5,-375.8986 85.5,-353.8986 .5,-353.8986"/>
<polygon fill="none" stroke="#000000" points=".5,-353.8986 .5,-375.8986 85.5,-375.8986 85.5,-353.8986 .5,-353.8986"/>
<text text-anchor="start" x="27.7275" y="-362.8986" font-family="Times,serif" font-weight="bold" font-size="10.00" fill="#000000">Review</text>
<polygon fill="none" stroke="#000000" points=".5,-331.8986 .5,-353.8986 85.5,-353.8986 85.5,-331.8986 .5,-331.8986"/>
<text text-anchor="start" x="5.5" y="-340.8986" font-family="Times,serif" text-decoration="underline" font-size="10.00" fill="#000000">id</text>
<text text-anchor="start" x="13.279" y="-340.8986" font-family="Times,serif" font-size="10.00" fill="#000000">: NUMBER</text>
<polygon fill="none" stroke="#000000" points=".5,-309.8986 .5,-331.8986 85.5,-331.8986 85.5,-309.8986 .5,-309.8986"/>
<text text-anchor="start" x="5.5" y="-317.8986" font-family="Times,serif" font-size="10.00" fill="#000000">comment: TEXT</text>
<polygon fill="none" stroke="#000000" points=".5,-287.8986 .5,-309.8986 85.5,-309.8986 85.5,-287.8986 .5,-287.8986"/>
<text text-anchor="start" x="5.5" y="-295.8986" font-family="Times,serif" font-size="10.00" fill="#000000">rating: NUMBER</text>
<polygon fill="none" stroke="#000000" points=".5,-265.8986 .5,-287.8986 85.5,-287.8986 85.5,-265.8986 .5,-265.8986"/>
<text text-anchor="start" x="5.5" y="-273.8986" font-family="Times,serif" font-size="10.00" fill="#000000">createdAt: DATE</text>
<polygon fill="none" stroke="#000000" points=".5,-243.8986 .5,-265.8986 85.5,-265.8986 85.5,-243.8986 .5,-243.8986"/>
<text text-anchor="start" x="5.5" y="-251.8986" font-family="Times,serif" font-size="10.00" fill="#000000">updatedAt: DATE</text>
<polygon fill="none" stroke="#000000" points=".5,-221.8986 .5,-243.8986 85.5,-243.8986 85.5,-221.8986 .5,-221.8986"/>
<text text-anchor="start" x="5.371" y="-230.8986" font-family="Times,serif" font-style="italic" text-decoration="underline" font-size="10.00" fill="#000000">UserId</text>
<text text-anchor="start" x="32.576" y="-230.8986" font-family="Times,serif" font-size="10.00" fill="#000000">: NUMBER</text>
<polygon fill="none" stroke="#000000" points=".5,-199.8986 .5,-221.8986 85.5,-221.8986 85.5,-199.8986 .5,-199.8986"/>
<text text-anchor="start" x="5.5" y="-208.8986" font-family="Times,serif" font-style="italic" text-decoration="underline" font-size="10.00" fill="#000000">PostId</text>
<text text-anchor="start" x="31.056" y="-208.8986" font-family="Times,serif" font-size="10.00" fill="#000000">: NUMBER</text>
</g>
<!-- Review&#45;&gt;User -->
<g id="edge3" class="edge">
<title>Review&#45;&gt;User</title>
<path fill="none" stroke="#000000" stroke-width=".75" d="M89.6944,-240.7042C122.1833,-208.2153 165.0967,-165.3019 197.1566,-133.242"/>
<polygon fill="#000000" stroke="#000000" stroke-width=".75" points="89.6259,-240.7727 83.4741,-243.1061 87.5046,-242.894 85.3833,-245.0153 85.3833,-245.0153 85.3833,-245.0153 87.5046,-242.894 87.2925,-246.9245 89.6259,-240.7727 89.6259,-240.7727"/>
</g>
<!-- Review&#45;&gt;Post -->
<g id="edge4" class="edge">
<title>Review&#45;&gt;Post</title>
<path fill="none" stroke="#000000" stroke-width=".75" d="M89.8774,-335.2761C118.3179,-363.7165 154.6969,-400.0955 184.7923,-430.1909"/>
<polygon fill="#000000" stroke="#000000" stroke-width=".75" points="89.6259,-335.0245 87.2925,-328.8727 87.5046,-332.9032 85.3833,-330.7819 85.3833,-330.7819 85.3833,-330.7819 87.5046,-332.9032 83.4741,-332.6911 89.6259,-335.0245 89.6259,-335.0245"/>
</g>
<!-- Image&#45;&gt;User -->
<g id="edge5" class="edge">
<title>Image&#45;&gt;User</title>
<path fill="none" stroke="#000000" stroke-width=".75" d="M394.6082,-240.2095C362.1049,-207.7063 319.3424,-164.9438 287.4213,-133.0227"/>
<polygon fill="#000000" stroke="#000000" stroke-width=".75" points="394.6795,-240.2809 397.013,-246.4328 396.8009,-242.4023 398.9222,-244.5236 398.9222,-244.5236 398.9222,-244.5236 396.8009,-242.4023 400.8314,-242.6144 394.6795,-240.2809 394.6795,-240.2809"/>
</g>
</g>
</svg>
